<?xml version="1.0" encoding="UTF-8" standalone="no"?>
<!-- Created with Inkscape (http://www.inkscape.org/) -->

<svg
   xmlns:dc="http://purl.org/dc/elements/1.1/"
   xmlns:cc="http://creativecommons.org/ns#"
   xmlns:rdf="http://www.w3.org/1999/02/22-rdf-syntax-ns#"
   xmlns:svg="http://www.w3.org/2000/svg"
   xmlns="http://www.w3.org/2000/svg"
   xmlns:sodipodi="http://sodipodi.sourceforge.net/DTD/sodipodi-0.dtd"
   xmlns:inkscape="http://www.inkscape.org/namespaces/inkscape"
   width="49.869946mm"
   height="38.890045mm"
   viewBox="0 0 176.70453 137.79937"
   id="svg4346"
   version="1.1"
   inkscape:version="0.91 r13725">
  <defs
     id="defs4348" />
  <sodipodi:namedview
     id="base"
     pagecolor="#ffffff"
     bordercolor="#666666"
     borderopacity="1.0"
     inkscape:pageopacity="0.0"
     inkscape:pageshadow="2"
     inkscape:zoom="0.7"
     inkscape:cx="105.19323"
     inkscape:cy="-389.91808"
     inkscape:document-units="px"
     inkscape:current-layer="layer1"
     showgrid="false"
     fit-margin-top="0"
     fit-margin-left="0"
     fit-margin-right="0"
     fit-margin-bottom="0"
     inkscape:window-width="1858"
     inkscape:window-height="1057"
     inkscape:window-x="1974"
     inkscape:window-y="-8"
     inkscape:window-maximized="1" />
  <metadata
     id="metadata4351">
    <rdf:RDF>
      <cc:Work
         rdf:about="">
        <dc:format>image/svg+xml</dc:format>
        <dc:type
           rdf:resource="http://purl.org/dc/dcmitype/StillImage" />
        <dc:title></dc:title>
      </cc:Work>
    </rdf:RDF>
  </metadata>
  <g
     inkscape:label="Layer 1"
     inkscape:groupmode="layer"
     id="layer1"
     transform="translate(-20.219161,-22.033948)">
    <path
       d="m 85.135352,110.77745 c 0,2.075 -1.68125,3.75625 -3.7575,3.75625 -2.07375,0 -3.75375,-1.68125 -3.75375,-3.75625 0,-2.075 1.68,-3.75625 3.75375,-3.75625 2.07625,0 3.7575,1.68125 3.7575,3.75625"
       style="fill:#ffffff;fill-opacity:1;fill-rule:nonzero;stroke:none"
       id="path124"
       inkscape:connector-curvature="0"
       inkscape:export-xdpi="90"
       inkscape:export-ydpi="90" />
    <path
       d="m 93.671732,110.77745 c 0,6.78875 -5.505,12.2925 -12.29375,12.2925 -6.78875,0 -12.29125,-5.50375 -12.29125,-12.2925 0,-6.78875 5.5025,-12.292502 12.29125,-12.292502 6.78875,0 12.29375,5.503752 12.29375,12.292502 z"
       style="fill:none;stroke:#ffffff;stroke-width:2.5;stroke-linecap:butt;stroke-linejoin:miter;stroke-miterlimit:10;stroke-dasharray:none;stroke-opacity:1"
       id="path128"
       inkscape:connector-curvature="0"
       inkscape:export-xdpi="90"
       inkscape:export-ydpi="90" />
    <path
       d="m 140.22448,110.77745 c 0,2.075 -1.68375,3.75625 -3.75625,3.75625 -2.07375,0 -3.75625,-1.68125 -3.75625,-3.75625 0,-2.075 1.6825,-3.75625 3.75625,-3.75625 2.0725,0 3.75625,1.68125 3.75625,3.75625"
       style="fill:#ffffff;fill-opacity:1;fill-rule:nonzero;stroke:none"
       id="path132"
       inkscape:connector-curvature="0"
       inkscape:export-xdpi="90"
       inkscape:export-ydpi="90" />
    <path
       d="m 148.76085,110.77745 c 0,6.78875 -5.50375,12.2925 -12.2925,12.2925 -6.78875,0 -12.2925,-5.50375 -12.2925,-12.2925 0,-6.78875 5.50375,-12.292502 12.2925,-12.292502 6.78875,0 12.2925,5.503752 12.2925,12.292502 z"
       style="fill:none;stroke:#ffffff;stroke-width:2.5;stroke-linecap:butt;stroke-linejoin:miter;stroke-miterlimit:10;stroke-dasharray:none;stroke-opacity:1"
       id="path136"
       inkscape:connector-curvature="0"
       inkscape:export-xdpi="90"
       inkscape:export-ydpi="90" />
    <path
       d="m 112.87273,126.59769 c 0,1.00625 -2.03625,1.8225 -4.55125,1.8225 -2.51625,0 -4.55375,-0.81625 -4.55375,-1.8225 0,-1.005 2.0375,-1.82125 4.55375,-1.82125 2.515,0 4.55125,0.81625 4.55125,1.82125"
       style="fill:#ffffff;fill-opacity:1;fill-rule:nonzero;stroke:none"
       id="path140"
       inkscape:connector-curvature="0"
       inkscape:export-xdpi="90"
       inkscape:export-ydpi="90" />
    <path
       d="m 108.3201,134.79357 c 0,4.76625 -5.46375,10.87 -5.46375,10.87 3.52875,0.8525 5.46375,-4.95125 5.46375,-4.95125 0,0 1.93625,5.80375 5.46375,4.95125 0,0 -5.46375,-6.10375 -5.46375,-10.87"
       style="fill:#ffffff;fill-opacity:1;fill-rule:nonzero;stroke:none"
       id="path144"
       inkscape:connector-curvature="0"
       inkscape:export-xdpi="90"
       inkscape:export-ydpi="90" />
    <path
       d="m 192.99911,131.83457 c 0,0 -0.45625,20.26 -17.0725,21.625 0,0 13.81,2.35375 16.16125,6.37375 0,0 10.245,-4.78 0.91125,-27.99875"
       style="fill:#ffffff;fill-opacity:1;fill-rule:nonzero;stroke:none"
       id="path148"
       inkscape:connector-curvature="0"
       inkscape:export-xdpi="90"
       inkscape:export-ydpi="90" />
    <path
       d="m 24.143482,131.83457 c 0,0 0.455,20.26 17.07375,21.625 0,0 -13.81,2.35375 -16.16375,6.37375 0,0 -10.2425,-4.78 -0.91,-27.99875"
       style="fill:#ffffff;fill-opacity:1;fill-rule:nonzero;stroke:none"
       id="path152"
       inkscape:connector-curvature="0"
       inkscape:export-xdpi="90"
       inkscape:export-ydpi="90" />
    <path
       d="m 153.38848,78.187698 c 0,0 -23.67375,-18.82 -23.37,-29.14 0.30375,-10.31875 15.17375,-13.6575 16.99625,-17.6025 1.8225,-3.94625 -18.8175,-3.94625 -18.8175,-3.94625 0,0 -5.46375,7.5875 -6.67625,4.85625 0,0 -3.795,-10.32125 -13.50875,-10.32125 -8.917498,0 -12.843748,9.3325 -13.426248,10.86125 -1.8025,0.6275 -6.14125,-5.39625 -6.14125,-5.39625 0,0 -20.64,0 -18.81875,3.94625 1.82125,3.945 16.6925,7.28375 16.99625,17.6025 0.305,10.32 -23.36875,29.14 -23.36875,29.14 0,0 -30.3525,30.655002 -29.74625,37.636252 0.60625,6.98 18.21125,29.1375 29.44125,28.83375 0,0 -17.9075,-20.0325 -7.89125,-40.3675 9.9575,-20.217502 34.61,-22.126252 53.091248,-3.95625 l 0.015,0.3125 c 0.0525,-0.0525 0.105,-0.0975 0.15625,-0.14875 0.0525,0.0513 0.10375,0.0963 0.1575,0.14875 l -0.0163,-0.2825 c 18.48125,-18.203752 43.1575,-16.302502 53.12375,3.92625 10.0175,20.335 -7.8925,40.3675 -7.8925,40.3675 11.23,0.30375 28.83625,-21.85375 29.4425,-28.835 0.6075,-6.98 -29.74625,-37.635002 -29.74625,-37.635002"
       style="fill:#ffffff;fill-opacity:1;fill-rule:nonzero;stroke:none"
       id="path156"
       inkscape:connector-curvature="0"
       inkscape:export-xdpi="90"
       inkscape:export-ydpi="90" />
  </g>
</svg>
