<svg xmlns="http://www.w3.org/2000/svg" viewBox="0 0 200 200" width="200" height="200"><path d="M117.8 53.6L42.4 53.6C37.9 53.6 34.3 57.2 34.3 61.8L34.3 130.2 50.7 119.5 50.7 70 109.6 70 109.6 162.8 50.7 162.8 50.7 142.9C50.6 143 50.6 143 50.5 143 50.5 140.2 50.6 137.8 50.6 136.8 3.8 170.3 3.6 174.3 5.6 177.1 7.3 179.4 10 180.6 34.4 165.5L34.4 170.8C34.4 175.3 38.1 178.9 42.6 178.9L117.9 178.9C122.4 178.9 126 175.3 126 170.8L126 61.9C126 57.4 122.3 53.6 117.8 53.6Z"/><path d="M194.7 46.9C193.2 44.6 185.8 46.7 158.6 63.6L158.6 29.2C158.6 24.7 155 21.1 150.4 21.1L75.1 21.1C70.6 21.1 67 24.7 67 29.2L67 37.4 83.4 37.4 142.3 37.4 142.3 130.1 142.3 146.5 150.4 146.5C155 146.5 158.6 142.9 158.6 138.4L158.6 80.4C190.9 56.5 196.4 49.4 194.7 46.9Z"/></svg>