<svg xmlns="http://www.w3.org/2000/svg" viewBox="0 0 200 200" width="200" height="200"><path d="M114.7 174.3C123.5 167.2 140.8 152.9 152.5 141.1 153.9 139.7 187.2 106 177.4 95.2 172.4 89.7 164.4 92.3 153.2 95.7 152.1 95.9 150.8 96.4 149.6 96.8 153.8 88.5 160.8 76 166.3 66.2 192.7 19.3 195.7 13 188.8 7.2 181.9 1.4 175.2 6.2 140.9 33 132.3 39.8 120.6 48.9 112.9 54.2 113.2 51.2 113.6 48.1 114 45.7 116 31.6 117.2 22.3 109.9 18.6 101 14.1 83.2 30.9 73.4 41.2 60 55.3 40.8 76.3 32.7 85.1 17.8 96.2 8 114 8 134 8 167.6 35.4 195 69 195 87.3 194.7 103.6 186.8 114.7 174.3ZM84.5 51.6C90 45.8 95.2 41.3 99.5 38.1 99.2 39.9 99 41.8 98.8 43.4 96.8 57.4 95.4 67.6 102.1 72.1 108.9 76.6 115.1 72.5 150.5 45 155.8 40.9 162.1 36 167.9 31.6 163.2 40.3 157.6 50.5 153.1 58.5 130.6 98.2 128.7 103 131.4 108.5 135.4 117.2 146.5 113.9 158 110.3 158.2 110.3 158.3 110.2 158.4 110.2 154.5 116 148.7 123.3 141.8 130.2 138.3 133.8 134 137.7 129.8 141.5 130.1 139 130.4 136.4 130.4 133.8 130.4 100.2 103 72.8 69.4 72.8 67.9 72.8 66.4 72.9 64.9 73.1 71.4 65.6 78.6 58 84.5 51.6ZM25.2 133.8C25.2 109.6 45 89.9 69.1 89.9 93.4 89.9 113 109.5 113 133.8 113 158 93.4 177.6 69.1 177.6 45 177.6 25.2 157.9 25.2 133.8Z"/></svg>