<svg xmlns="http://www.w3.org/2000/svg" viewBox="0 0 200 200" width="200" height="200"><path d="M38.9 44.4C44.7 44.4 49.6 34.1 49.6 34.1L150.8 34.1 150.8 135.6C150.8 135.6 150.8 135.7 150.6 135.7 150.5 135.9 148.8 146.1 140.7 154.6 131 165 113.8 175.2 96.9 175.4 43.3 176.1 45 150.1 38.9 152.9 32.8 155.8 31.5 158.8 34.4 164.9 34.9 166.3 49.7 195 95.9 195 129.7 195 153.3 174.5 164 161.6 165.1 160.3 171.6 152.1 171.9 145.1 171.9 145 171.9 145 171.9 144.8 171.9 144.7 171.9 144.6 171.9 144.3L171.9 12.8C171.9 7 167.1 5 161.3 5 155.4 5 150.6 7 150.6 12.8L38.9 12.8C33.1 12.8 28.3 17.6 28.3 23.5 28.3 23.5 27.4 34.3 29.4 39.5 31.4 44.6 36.1 44.4 38.9 44.4Z"/><path d="M69.6 138L69.6 58C69.6 54.5 66.8 51.6 63.2 51.6 59.7 51.6 56.8 54.5 56.8 58L56.8 137.9C56.8 141.4 59.7 144.3 63.2 144.3 66.8 144.4 69.6 141.4 69.6 138Z"/><path d="M100.2 138L100.2 58C100.2 54.5 97.3 51.6 93.8 51.6 90.2 51.6 87.4 54.5 87.4 58L87.4 137.9C87.4 141.4 90.2 144.3 93.8 144.3 97.3 144.4 100.2 141.4 100.2 138Z"/><path d="M132.4 138L132.4 58C132.4 54.5 129.6 51.6 126 51.6 122.5 51.6 119.6 54.5 119.6 58L119.6 137.9C119.6 141.4 122.5 144.3 126 144.3 129.6 144.4 132.4 141.4 132.4 138Z"/></svg>