<svg xmlns="http://www.w3.org/2000/svg" xmlns:xlink="http://www.w3.org/1999/xlink" viewBox="0 0 200 200" width="200" height="200"><g><path d=" M 95.908 192.206 C 96.607 193.836 98.236 195 99.983 195 C 101.729 195 103.359 193.952 104.058 192.206 L 160.173 56.691 C 160.755 55.178 160.522 53.548 159.591 52.267 C 158.659 50.987 157.029 50.404 155.399 50.637 L 130.718 54.479 L 130.718 13.848 C 130.718 8.958 126.76 5 121.87 5 C 116.98 5 113.022 8.958 113.022 13.848 L 113.022 57.39 L 100.099 59.485 L 87.06 57.39 L 87.06 13.848 C 87.06 8.958 83.102 5 78.212 5 C 73.322 5 69.364 8.958 69.364 13.848 L 69.364 54.479 L 44.683 50.637 C 43.053 50.404 41.539 50.987 40.491 52.267 C 39.444 53.548 39.211 55.294 39.909 56.691 L 95.908 192.206 Z  M 65.406 78.229 C 65.638 77.763 66.22 77.414 66.686 77.298 C 68.083 77.065 69.48 77.065 70.877 77.065 C 81.006 77.065 91.6 81.722 96.956 84.516 C 98.819 85.447 100.798 85.564 102.195 84.865 C 107.434 82.071 118.261 77.414 131.999 77.414 L 132.93 77.414 C 133.396 77.414 133.861 77.647 134.211 77.88 C 135.142 78.811 135.608 80.092 135.491 81.489 C 135.258 86.844 124.897 96.275 115.933 104.773 C 111.392 108.964 106.153 113.854 106.037 115.018 C 106.037 115.135 106.037 115.251 106.037 115.251 C 106.037 115.251 106.153 115.251 106.386 115.251 C 106.386 115.251 106.386 115.251 106.386 115.251 L 111.043 127.475 L 101.496 158.327 C 101.263 159.142 100.565 159.608 99.75 159.608 C 98.935 159.608 98.236 159.142 98.004 158.327 L 88.457 127.359 L 93.23 115.135 C 93.463 115.135 93.58 115.135 93.58 115.135 C 93.347 114.203 89.272 110.362 85.663 106.985 C 75.883 97.206 62.262 84.4 65.406 78.229 Z"/></g></svg>