<svg xmlns="http://www.w3.org/2000/svg" viewBox="0 0 200 200" width="200" height="200"><path d="M33.6 95.4C35.3 98.8 45.2 97.4 93.8 74 93.8 74 93.8 74 93.8 74.1 93.2 74.4 92.6 74.8 92.1 75.2L62.8 101.5C58.3 105.5 57.8 112.5 61.7 117.2L89.6 150.4 93.4 183.3C93.4 189.6 94.8 195 101 195 107.2 195 109.4 189.3 109.4 182.9L112.3 150.1 138.4 116.9C142.1 112.2 141.5 105.4 137 101.3L107.5 75.1C159.4 103 163 101.3 164.8 97.9 166.7 94.5 166.2 90.6 115.9 62.8 167.3 37 167.9 33.3 166.2 29.7 164.5 26.1 160.9 24.3 107.2 50.5 107.2 49.1 107.2 47.9 107.2 46.5 107.2 10.9 103.9 5 99.7 5 95.7 5 92.3 10.9 92.3 46.5 92.3 47.7 92.3 49 92.3 50.1 46.4 25.7 36.7 24 35 27.2 33.2 30.5 39.8 37.5 84 62.3 38.7 85.3 31.8 92 33.6 95.4ZM99.9 88.4L117.9 105.7 100.7 128.4 82 105.4 99.9 88.4Z"/></svg>