<svg xmlns="http://www.w3.org/2000/svg" viewBox="0 0 200 200" width="200" height="200"><path d="M51.9 26.5C60.4 33.8 72.3 43.4 88.7 56.2 102.5 66.7 119.8 80 141.6 96.7 141.6 96.7 141.6 96.7 141.6 96.7L141.6 96.7 141.6 96.7C141.6 96.7 141.6 96.7 141.6 96.7 141.6 96.7 141.5 96.7 141 97 139.5 97.8 138.1 98.6 136.5 99.5 133.4 101.4 130.3 103.2 127.2 106L124.3 109.4C123.4 110.5 122.3 111.6 121.8 113 120.9 115.7 121.2 118.8 122.3 121.6 122.8 122.8 123.5 124.6 124 125.5L125.4 127.8C126.3 129.2 127.2 130.6 128.3 131.8 130.2 134.3 132 136.5 133.9 138.6 137.5 142.8 140.7 146.7 142.9 150.2 143.9 151.9 144.9 153.6 145.2 154.7 145.3 155.2 145.3 155 145.3 155.2 139.2 164 134.8 173 130.6 178.2 130.2 178.8 129.7 179.5 129.3 179.9 129.1 180.1 128.8 180.2 128.6 180.2 128.3 180.1 128.3 180.1 128 179.8 128 179.8 127.6 179.1 127.1 178.7L125.9 177C119.8 167.4 116.3 159.7 113.5 154.7 108.1 144.7 106.4 144.3 104.7 145 103 145.6 101.6 147 104.7 158.3 106.4 164 108.7 172 114.9 183.6 115.3 184.4 115.8 185.2 116.3 185.9 116.7 186.7 117.2 187.5 118.3 188.7 120 191.1 122.3 193.4 125.2 194.5 128.2 195.5 131.4 194.9 134.5 193.4 136.1 192.6 137.5 191.5 138.8 190.3 140.2 189 140.9 188.3 141.8 187.3 148 179.9 151.8 171.9 158 163.5 160.6 160.1 161.3 154.9 160 150.8 159.1 147.3 157.6 144.7 156 142.2 152.9 137.2 149.5 133.1 146 128.9 144.3 126.9 142.6 124.7 140.9 122.5 140.1 121.5 139.3 120.4 138.7 119.4L137.8 118.1C137.6 117.9 137.6 117.9 137.6 117.9L137.8 117.7C139.3 116.5 141.8 114.8 144.3 113.4 145.5 112.6 146.9 112 148.1 111.4 148.4 111.3 150.4 110.3 151.7 109.7L155.9 107.8C158.9 106.5 162 105.2 165.3 104 167.9 102.9 168.4 98.6 164.8 94.9 150.6 84.3 137.8 74.8 126 66.1 115.2 58.2 105.6 51.2 97.2 45.2 80.4 32.7 67.7 24 58.4 18 39.7 5.8 34.1 3.9 32.9 5.5 31.5 7.2 34.9 12.1 51.9 26.5Z"/><path d="M96.2 107.4C94.1 111.9 91.2 115.7 89.2 117.4 88 118.5 87.3 118.7 87.5 118.8 87.3 119 87 119 86.7 119 86.4 119.3 85.2 117.6 84.4 116 81.8 109.4 80.5 108.2 78.2 108.2 77.1 108.2 76.1 108.2 75.1 109.5 74.2 110.9 73.3 113.3 73.6 118.5 73.7 119.9 73.9 121.3 74.7 123.2 75.1 124.7 76.7 127.5 78.8 129.5 81 131.5 84.2 132.7 88 132.6 92 132.4 95.4 130.9 97.9 129.2 103.1 125.5 107 120.5 110.2 113.9 111.3 111.7 115.5 102.6 110.5 97.6 109.5 96.4 108.1 94.5 107.3 93.9L105 91.9C103.4 90.7 101.9 89.3 100.3 88.1 75 67.5 59.4 57.6 49.9 52.2 40.5 46.9 37.2 46.9 35.8 48.8 34.6 50.5 35.5 53.7 43.3 61.1 50.8 68.7 65.7 80.3 90.4 100.1 92 101.4 93.4 102.6 94.8 103.7L96.6 105.4C97.2 105.8 96.8 105.5 96.9 105.5 96.9 105.5 96.9 105.5 96.9 105.5 96.9 105.7 97.1 105.1 96.9 105.8L96.2 107.4Z"/></svg>