<svg xmlns="http://www.w3.org/2000/svg" viewBox="0 0 200 200" width="200" height="200"><path d="M113.7 13.6C109.2 8.5 103.8 5.8 55.1 48.9 6.2 91.7 1.9 103 6.4 108.2 10.8 113.3 22.6 110.4 71.4 67.5 120.2 24.4 118.2 18.8 113.7 13.6Z"/><path d="M151.8 51.7C147.3 46.5 141.8 43.9 93.1 86.9 44.3 129.8 39.9 141.1 44.4 146.3 48.9 151.4 60.7 148.4 109.4 105.5 158.1 62.5 156.3 56.7 151.8 51.7Z"/><path d="M134.2 128C85.3 170.9 81 182.2 85.5 187.3 90 192.5 101.8 189.5 150.5 146.6 199.3 103.7 197.3 98.1 192.9 92.9 188.4 87.6 182.9 84.9 134.2 128Z"/></svg>