<svg xmlns="http://www.w3.org/2000/svg" viewBox="0 0 200 200" width="200" height="200"><g clip-path="url(#_clipPath_IDuRPYSmZCf9yhdyEiUFUmrw7yCz8vS5)"><path d="M187.1 110.4C186.5 110.1 185.6 110.2 185.3 110.8 176 124.1 163.2 134 148 139.7 155 128.9 158.8 116.5 158.8 103.6 158.8 97.7 157.9 91.5 156.3 85.6 156.3 85.6 156.3 85.4 156.3 85.4 156.3 85.3 156.3 85.1 156.2 84.8 152.8 64.7 141.4 44.5 124.9 29.4 107.9 13.6 87.3 5 67.3 5 63.6 5 60 5.3 56.5 5.9 49.9 6.9 43.4 8.9 36.8 11.7 36.2 12 35.8 12.7 35.9 13.5 36.1 14.2 36.8 14.6 37.4 14.6 39.3 14.5 41 14.5 42.9 14.5 63.9 14.5 84.2 22.8 99.2 37.5 96.8 37.3 94.6 37.1 92.2 37.1 72.8 37.1 54.4 45.6 41.9 60.3 26.6 75.2 16.1 96.5 13 118.8 9.8 142.3 14.9 164.2 27.6 180.3 31.7 185.5 36.6 190.3 42.3 194.7 42.6 194.9 42.9 195 43.2 195 43.2 195 43.2 195 43.2 195 44.1 195 44.7 194.4 44.7 193.5 44.7 193.1 44.5 192.8 44.2 192.5 33 175.2 28.9 153.8 32.8 133.6 44.1 155.9 67 170 92.2 170 92.5 170 93 170 93.3 170 93.4 170 93.7 170 93.8 170 96.9 170.3 100 170.5 103 170.5 136.6 170.5 165.9 155.3 179.9 131.1 183.3 125.4 185.9 119 187.8 112.1 188.1 111.4 187.8 110.7 187.1 110.4ZM92.2 70.7C110.5 70.7 125.2 85.4 125.2 103.6 125.2 121.9 110.5 136.6 92.2 136.6 74 136.6 59.3 121.9 59.3 103.6 59.3 85.6 74 70.7 92.2 70.7Z"/></g></svg>