<svg xmlns="http://www.w3.org/2000/svg" viewBox="0 0 200 200" width="200" height="200"><path d="M34.2 5C28.9 5 24.7 9.2 24.7 14.5 24.7 14.5 24.5 81.1 24.5 111.4 24.5 157.2 92.5 192.7 95.4 194 96.7 194.8 98.3 195 99.6 195 101.2 195 102.7 194.6 104.1 193.8 107 192.3 175.5 154.8 175.5 110.4L175.5 14.5C175.5 9.2 171.3 5 166 5 160.8 5 156.6 9.2 156.6 14.5L156.6 15.2 108.7 15.2 108.7 14.7C108.7 9.4 104.4 5.2 99.2 5.2 94 5.2 89.8 9.4 89.8 14.7L89.8 15.2 43.6 15.2 43.6 14.5C43.6 9.2 39.4 5 34.2 5ZM43.4 111.4C43.4 102.3 43.4 90.3 43.4 77.6 43.4 77.4 43.4 77.2 43.4 77L43.4 34.2 89.8 34.2 89.8 168.9C74.9 159.3 43.4 135.9 43.4 111.4ZM108.9 168.9L108.9 34.2 156.8 34.2 156.8 110.6C156.8 134.9 121.8 160.4 108.9 168.9Z"/></svg>