<svg xmlns="http://www.w3.org/2000/svg" xmlns:xlink="http://www.w3.org/1999/xlink" style="isolation:isolate" viewBox="0 0 135 36" width="135" height="36"><defs><clipPath id="_pvpaissa_logo"><rect width="135" height="36"/></clipPath></defs><g clip-path="url(#_pvpaissa_logo)"><g><path d=" M 0 0 L 9.638 0 C 11.415 0 12.815 0.215 13.946 0.7 C 15.077 1.185 15.992 1.777 16.638 2.531 C 17.285 3.285 17.769 4.092 17.985 5.008 C 18.254 5.923 18.362 6.785 18.362 7.646 C 18.362 8.508 18.254 9.369 17.985 10.285 C 17.715 11.2 17.285 12.008 16.638 12.762 C 15.992 13.515 15.077 14.108 13.946 14.592 C 12.815 15.077 11.362 15.292 9.638 15.292 L 3.715 15.292 L 3.715 27.354 L 0 27.354 L 0 0 L 0 0 Z  M 3.715 12.062 L 8.562 12.062 C 9.262 12.062 10.015 12.008 10.715 11.9 C 11.415 11.792 12.062 11.577 12.6 11.254 C 13.138 10.931 13.623 10.5 13.946 9.908 C 14.269 9.315 14.431 8.562 14.431 7.646 C 14.431 6.731 14.269 5.977 13.946 5.385 C 13.623 4.792 13.192 4.362 12.6 4.038 C 12.008 3.715 11.415 3.5 10.715 3.392 C 10.015 3.285 9.315 3.231 8.562 3.231 L 3.715 3.231 L 3.715 12.062 Z " fill="rgb(255,255,255)"/><path d=" M 20.785 8.185 L 23.8 8.185 L 29.4 23.746 L 29.454 23.746 L 35.269 8.185 L 38.123 8.185 L 30.585 27.3 L 28.162 27.3 L 20.785 8.185 Z " fill="rgb(255,255,255)"/><path d=" M 41.515 0 L 51.154 0 C 52.931 0 54.331 0.215 55.462 0.7 C 56.592 1.185 57.508 1.777 58.154 2.531 C 58.8 3.285 59.285 4.092 59.5 5.008 C 59.769 5.923 59.877 6.785 59.877 7.646 C 59.877 8.508 59.769 9.369 59.5 10.285 C 59.231 11.2 58.8 12.008 58.154 12.762 C 57.508 13.515 56.592 14.108 55.462 14.592 C 54.331 15.077 52.877 15.292 51.154 15.292 L 45.231 15.292 L 45.231 27.354 L 41.515 27.354 L 41.515 0 Z  M 45.177 12.062 L 50.023 12.062 C 50.723 12.062 51.477 12.008 52.177 11.9 C 52.877 11.792 53.523 11.577 54.062 11.254 C 54.6 10.931 55.085 10.5 55.408 9.908 C 55.731 9.315 55.892 8.562 55.892 7.646 C 55.892 6.731 55.731 5.977 55.408 5.385 C 55.085 4.792 54.654 4.362 54.062 4.038 C 53.523 3.715 52.877 3.5 52.177 3.392 C 51.477 3.285 50.777 3.231 50.023 3.231 L 45.177 3.231 L 45.177 12.062 Z " fill="rgb(255,255,255)"/><path d=" M 67.038 8.185 L 69.408 8.185 L 77.592 27.3 L 74.577 27.3 L 72.638 22.562 L 63.538 22.562 L 61.654 27.3 L 58.638 27.3 L 67.038 8.185 Z  M 71.669 20.354 L 68.115 11.577 L 68.062 11.577 L 64.454 20.354 L 71.669 20.354 Z " fill="rgb(255,255,255)"/><path d=" M 80.069 8.185 L 82.654 8.185 L 82.654 27.3 L 80.069 27.3 L 80.069 8.185 Z " fill="rgb(255,255,255)"/><path d=" M 88.146 23.369 C 88.631 24.069 89.223 24.608 89.923 24.931 C 90.677 25.254 91.431 25.415 92.185 25.415 C 92.615 25.415 93.046 25.362 93.531 25.2 C 93.962 25.092 94.392 24.877 94.769 24.608 C 95.146 24.338 95.415 24.015 95.685 23.585 C 95.9 23.208 96.062 22.723 96.062 22.185 C 96.062 21.431 95.846 20.892 95.362 20.515 C 94.877 20.138 94.338 19.815 93.638 19.546 C 92.938 19.277 92.185 19.008 91.377 18.792 C 90.569 18.523 89.815 18.2 89.115 17.769 C 88.415 17.338 87.823 16.746 87.392 16.046 C 86.908 15.292 86.692 14.323 86.692 13.085 C 86.692 12.546 86.8 11.954 87.069 11.308 C 87.338 10.662 87.715 10.123 88.2 9.585 C 88.738 9.046 89.385 8.615 90.192 8.292 C 91 7.915 92.023 7.754 93.154 7.754 C 94.177 7.754 95.2 7.915 96.169 8.185 C 97.138 8.454 97.946 9.046 98.7 9.962 L 96.6 11.9 C 96.277 11.415 95.792 10.985 95.2 10.662 C 94.608 10.338 93.908 10.177 93.154 10.177 C 92.454 10.177 91.808 10.285 91.377 10.446 C 90.892 10.662 90.515 10.877 90.246 11.2 C 89.977 11.523 89.762 11.792 89.654 12.169 C 89.546 12.492 89.492 12.815 89.492 13.138 C 89.492 13.946 89.708 14.592 90.192 15.023 C 90.677 15.454 91.215 15.831 91.915 16.1 C 92.615 16.369 93.369 16.638 94.177 16.854 C 94.985 17.069 95.738 17.392 96.438 17.769 C 97.138 18.146 97.731 18.685 98.162 19.331 C 98.646 19.977 98.862 20.892 98.862 22.023 C 98.862 22.938 98.7 23.746 98.323 24.5 C 97.946 25.254 97.515 25.846 96.923 26.385 C 96.331 26.869 95.631 27.3 94.823 27.569 C 94.015 27.838 93.154 28 92.238 28 C 91 28 89.869 27.785 88.738 27.354 C 87.662 26.923 86.746 26.277 86.1 25.362 L 88.146 23.369 Z " fill="rgb(255,255,255)"/><path d=" M 103.169 23.369 C 103.654 24.069 104.246 24.608 104.946 24.931 C 105.7 25.254 106.454 25.415 107.208 25.415 C 107.638 25.415 108.069 25.362 108.554 25.2 C 108.985 25.092 109.415 24.877 109.792 24.608 C 110.169 24.338 110.438 24.015 110.708 23.585 C 110.923 23.208 111.085 22.723 111.085 22.185 C 111.085 21.431 110.869 20.892 110.385 20.515 C 109.9 20.138 109.362 19.815 108.662 19.546 C 107.962 19.277 107.208 19.008 106.4 18.792 C 105.592 18.523 104.838 18.2 104.138 17.769 C 103.438 17.338 102.846 16.746 102.415 16.046 C 101.931 15.292 101.715 14.323 101.715 13.085 C 101.715 12.546 101.823 11.954 102.092 11.308 C 102.362 10.662 102.738 10.123 103.223 9.585 C 103.762 9.046 104.408 8.615 105.215 8.292 C 106.023 7.915 107.046 7.754 108.177 7.754 C 109.2 7.754 110.223 7.915 111.192 8.185 C 112.162 8.454 112.969 9.046 113.723 9.962 L 111.623 11.9 C 111.3 11.415 110.815 10.985 110.223 10.662 C 109.631 10.338 108.931 10.177 108.177 10.177 C 107.477 10.177 106.831 10.285 106.4 10.446 C 105.915 10.662 105.538 10.877 105.269 11.2 C 105 11.523 104.785 11.792 104.677 12.169 C 104.569 12.492 104.515 12.815 104.515 13.138 C 104.515 13.946 104.731 14.592 105.215 15.023 C 105.7 15.454 106.238 15.831 106.938 16.1 C 107.638 16.369 108.392 16.638 109.2 16.854 C 110.008 17.069 110.762 17.392 111.462 17.769 C 112.162 18.146 112.754 18.685 113.185 19.331 C 113.669 19.977 113.885 20.892 113.885 22.023 C 113.885 22.938 113.723 23.746 113.346 24.5 C 112.969 25.254 112.538 25.846 111.946 26.385 C 111.354 26.869 110.654 27.3 109.846 27.569 C 109.038 27.838 108.177 28 107.262 28 C 106.023 28 104.892 27.785 103.762 27.354 C 102.685 26.923 101.769 26.277 101.123 25.362 L 103.169 23.369 Z " fill="rgb(255,255,255)"/><path d=" M 123.631 8.185 L 126 8.185 L 134.185 27.3 L 131.169 27.3 L 129.231 22.562 L 120.131 22.562 L 118.246 27.3 L 115.231 27.3 L 123.631 8.185 Z  M 128.262 20.354 L 124.708 11.577 L 124.654 11.577 L 121.046 20.354 L 128.262 20.354 Z " fill="rgb(255,255,255)"/></g></g></svg>