<?xml version="1.0" standalone="no"?><!-- Generator: Gravit.io --><svg xmlns="http://www.w3.org/2000/svg" xmlns:xlink="http://www.w3.org/1999/xlink" style="isolation:isolate" viewBox="0 0 175 36" width="175" height="36"><defs><clipPath id="_clipPath_uONBljmPjFfCI07xxA3763sNJakosKaI"><rect width="175" height="36"/></clipPath></defs><g clip-path="url(#_clipPath_uONBljmPjFfCI07xxA3763sNJakosKaI)"><path d=" M 0 0 L 12.392 0 C 14.677 0 16.477 0.277 17.931 0.9 C 19.385 1.523 20.562 2.285 21.392 3.254 C 22.223 4.223 22.846 5.262 23.123 6.438 C 23.469 7.615 23.608 8.723 23.608 9.831 C 23.608 10.938 23.469 12.046 23.123 13.223 C 22.777 14.4 22.223 15.438 21.392 16.408 C 20.562 17.377 19.385 18.138 17.931 18.762 C 16.477 19.385 14.608 19.662 12.392 19.662 L 4.777 19.662 L 4.777 35.169 L 0 35.169 L 0 0 L 0 0 Z  M 4.777 15.508 L 11.008 15.508 C 11.908 15.508 12.877 15.438 13.777 15.3 C 14.677 15.162 15.508 14.885 16.2 14.469 C 16.892 14.054 17.515 13.5 17.931 12.738 C 18.346 11.977 18.554 11.008 18.554 9.831 C 18.554 8.654 18.346 7.685 17.931 6.923 C 17.515 6.162 16.962 5.608 16.2 5.192 C 15.438 4.777 14.677 4.5 13.777 4.362 C 12.877 4.223 11.977 4.154 11.008 4.154 L 4.777 4.154 L 4.777 15.508 Z " fill="rgb(255,255,255)"/><path d=" M 26.723 10.523 L 30.6 10.523 L 37.8 30.531 L 37.869 30.531 L 45.346 10.523 L 49.015 10.523 L 39.323 35.1 L 36.208 35.1 L 26.723 10.523 Z " fill="rgb(255,255,255)"/><path d=" M 53.377 0 L 65.769 0 C 68.054 0 69.854 0.277 71.308 0.9 C 72.762 1.523 73.938 2.285 74.769 3.254 C 75.6 4.223 76.223 5.262 76.5 6.438 C 76.846 7.615 76.985 8.723 76.985 9.831 C 76.985 10.938 76.846 12.046 76.5 13.223 C 76.154 14.4 75.6 15.438 74.769 16.408 C 73.938 17.377 72.762 18.138 71.308 18.762 C 69.854 19.385 67.985 19.662 65.769 19.662 L 58.154 19.662 L 58.154 35.169 L 53.377 35.169 L 53.377 0 Z  M 58.085 15.508 L 64.315 15.508 C 65.215 15.508 66.185 15.438 67.085 15.3 C 67.985 15.162 68.815 14.885 69.508 14.469 C 70.2 14.054 70.823 13.5 71.238 12.738 C 71.654 11.977 71.862 11.008 71.862 9.831 C 71.862 8.654 71.654 7.685 71.238 6.923 C 70.823 6.162 70.269 5.608 69.508 5.192 C 68.815 4.777 67.985 4.5 67.085 4.362 C 66.185 4.223 65.285 4.154 64.315 4.154 L 58.085 4.154 L 58.085 15.508 Z " fill="rgb(255,255,255)"/><path d=" M 86.192 10.523 L 89.238 10.523 L 99.762 35.1 L 95.885 35.1 L 93.392 29.008 L 81.692 29.008 L 79.269 35.1 L 75.392 35.1 L 86.192 10.523 Z  M 92.146 26.169 L 87.577 14.885 L 87.508 14.885 L 82.869 26.169 L 92.146 26.169 Z " fill="rgb(255,255,255)"/><path d=" M 102.946 10.523 L 106.269 10.523 L 106.269 35.1 L 102.946 35.1 L 102.946 10.523 Z " fill="rgb(255,255,255)"/><path d=" M 113.331 30.046 C 113.954 30.946 114.715 31.638 115.615 32.054 C 116.585 32.469 117.554 32.677 118.523 32.677 C 119.077 32.677 119.631 32.608 120.254 32.4 C 120.808 32.262 121.362 31.985 121.846 31.638 C 122.331 31.292 122.677 30.877 123.023 30.323 C 123.3 29.838 123.508 29.215 123.508 28.523 C 123.508 27.554 123.231 26.862 122.608 26.377 C 121.985 25.892 121.292 25.477 120.392 25.131 C 119.492 24.785 118.523 24.438 117.485 24.162 C 116.446 23.815 115.477 23.4 114.577 22.846 C 113.677 22.292 112.915 21.531 112.362 20.631 C 111.738 19.662 111.462 18.415 111.462 16.823 C 111.462 16.131 111.6 15.369 111.946 14.538 C 112.292 13.708 112.777 13.015 113.4 12.323 C 114.092 11.631 114.923 11.077 115.962 10.662 C 117 10.177 118.315 9.969 119.769 9.969 C 121.085 9.969 122.4 10.177 123.646 10.523 C 124.892 10.869 125.931 11.631 126.9 12.808 L 124.2 15.3 C 123.785 14.677 123.162 14.123 122.4 13.708 C 121.638 13.292 120.738 13.085 119.769 13.085 C 118.869 13.085 118.038 13.223 117.485 13.431 C 116.862 13.708 116.377 13.985 116.031 14.4 C 115.685 14.815 115.408 15.162 115.269 15.646 C 115.131 16.062 115.062 16.477 115.062 16.892 C 115.062 17.931 115.338 18.762 115.962 19.315 C 116.585 19.869 117.277 20.354 118.177 20.7 C 119.077 21.046 120.046 21.392 121.085 21.669 C 122.123 21.946 123.092 22.362 123.992 22.846 C 124.892 23.331 125.654 24.023 126.208 24.854 C 126.831 25.685 127.108 26.862 127.108 28.315 C 127.108 29.492 126.9 30.531 126.415 31.5 C 125.931 32.469 125.377 33.231 124.615 33.923 C 123.854 34.546 122.954 35.1 121.915 35.446 C 120.877 35.792 119.769 36 118.592 36 C 117 36 115.546 35.723 114.092 35.169 C 112.708 34.615 111.531 33.785 110.7 32.608 L 113.331 30.046 Z " fill="rgb(255,255,255)"/><path d=" M 132.646 30.046 C 133.269 30.946 134.031 31.638 134.931 32.054 C 135.9 32.469 136.869 32.677 137.838 32.677 C 138.392 32.677 138.946 32.608 139.569 32.4 C 140.123 32.262 140.677 31.985 141.162 31.638 C 141.646 31.292 141.992 30.877 142.338 30.323 C 142.615 29.838 142.823 29.215 142.823 28.523 C 142.823 27.554 142.546 26.862 141.923 26.377 C 141.3 25.892 140.608 25.477 139.708 25.131 C 138.808 24.785 137.838 24.438 136.8 24.162 C 135.762 23.815 134.792 23.4 133.892 22.846 C 132.992 22.292 132.231 21.531 131.677 20.631 C 131.054 19.662 130.777 18.415 130.777 16.823 C 130.777 16.131 130.915 15.369 131.262 14.538 C 131.608 13.708 132.092 13.015 132.715 12.323 C 133.408 11.631 134.238 11.077 135.277 10.662 C 136.315 10.177 137.631 9.969 139.085 9.969 C 140.4 9.969 141.715 10.177 142.962 10.523 C 144.208 10.869 145.246 11.631 146.215 12.808 L 143.515 15.3 C 143.1 14.677 142.477 14.123 141.715 13.708 C 140.954 13.292 140.054 13.085 139.085 13.085 C 138.185 13.085 137.354 13.223 136.8 13.431 C 136.177 13.708 135.692 13.985 135.346 14.4 C 135 14.815 134.723 15.162 134.585 15.646 C 134.446 16.062 134.377 16.477 134.377 16.892 C 134.377 17.931 134.654 18.762 135.277 19.315 C 135.9 19.869 136.592 20.354 137.492 20.7 C 138.392 21.046 139.362 21.392 140.4 21.669 C 141.438 21.946 142.408 22.362 143.308 22.846 C 144.208 23.331 144.969 24.023 145.523 24.854 C 146.146 25.685 146.423 26.862 146.423 28.315 C 146.423 29.492 146.215 30.531 145.731 31.5 C 145.246 32.469 144.692 33.231 143.931 33.923 C 143.169 34.546 142.269 35.1 141.231 35.446 C 140.192 35.792 139.085 36 137.908 36 C 136.315 36 134.862 35.723 133.408 35.169 C 132.023 34.615 130.846 33.785 130.015 32.608 L 132.646 30.046 Z " fill="rgb(255,255,255)"/><path d=" M 158.954 10.523 L 162 10.523 L 172.523 35.1 L 168.646 35.1 L 166.154 29.008 L 154.454 29.008 L 152.031 35.1 L 148.154 35.1 L 158.954 10.523 Z  M 164.908 26.169 L 160.338 14.885 L 160.269 14.885 L 155.631 26.169 L 164.908 26.169 Z " fill="rgb(255,255,255)"/></g></svg>