<svg xmlns="http://www.w3.org/2000/svg" width="130" height="36" viewBox="115 180 200 75"><style>.a{fill:#FFF;}</style><path d="M91.4 192.4h17.9c3.3 0 5.9 0.4 8 1.3 2.1 0.9 3.8 2 5 3.4 1.2 1.4 2.1 2.9 2.5 4.6 0.5 1.7 0.7 3.3 0.7 4.9 0 1.6-0.2 3.2-0.7 4.9 -0.5 1.7-1.3 3.2-2.5 4.6 -1.2 1.4-2.9 2.5-5 3.4 -2.1 0.9-4.8 1.3-8 1.3H98.3v22.4h-6.9V192.4zM98.3 214.8h9c1.3 0 2.7-0.1 4-0.3 1.3-0.2 2.5-0.6 3.5-1.2 1-0.6 1.9-1.4 2.5-2.5 0.6-1.1 0.9-2.5 0.9-4.2 0-1.7-0.3-3.1-0.9-4.2 -0.6-1.1-1.4-1.9-2.5-2.5s-2.2-1-3.5-1.2c-1.3-0.2-2.6-0.3-4-0.3H98.3V214.8z" class="a"/><path d="M130 207.6h5.6l10.4 28.9h0.1l10.8-28.9h5.3l-14 35.5h-4.5L130 207.6z" class="a"/><path d="M168.5 192.4h17.9c3.3 0 5.9 0.4 8 1.3 2.1 0.9 3.8 2 5 3.4 1.2 1.4 2.1 2.9 2.5 4.6 0.5 1.7 0.7 3.3 0.7 4.9 0 1.6-0.2 3.2-0.7 4.9 -0.5 1.7-1.3 3.2-2.5 4.6 -1.2 1.4-2.9 2.5-5 3.4 -2.1 0.9-4.8 1.3-8 1.3h-11v22.4h-6.9V192.4zM175.3 214.8h9c1.3 0 2.7-0.1 4-0.3 1.3-0.2 2.5-0.6 3.5-1.2 1-0.6 1.9-1.4 2.5-2.5 0.6-1.1 0.9-2.5 0.9-4.2 0-1.7-0.3-3.1-0.9-4.2 -0.6-1.1-1.4-1.9-2.5-2.5 -1-0.6-2.2-1-3.5-1.2 -1.3-0.2-2.6-0.3-4-0.3h-9V214.8z" class="a"/><path d="M215.9 207.6h4.4l15.2 35.5h-5.6l-3.6-8.8h-16.9l-3.5 8.8h-5.6L215.9 207.6zM224.5 230.2l-6.6-16.3h-0.1l-6.7 16.3H224.5z" class="a"/><path d="M240.1 207.6h4.8v35.5h-4.8V207.6z" class="a"/><path d="M255.1 235.8c0.9 1.3 2 2.3 3.3 2.9 1.4 0.6 2.8 0.9 4.2 0.9 0.8 0 1.6-0.1 2.5-0.4 0.8-0.2 1.6-0.6 2.3-1.1 0.7-0.5 1.2-1.1 1.7-1.9 0.4-0.7 0.7-1.6 0.7-2.6 0-1.4-0.4-2.4-1.3-3.1s-1.9-1.3-3.2-1.8c-1.3-0.5-2.7-1-4.2-1.4 -1.5-0.5-2.9-1.1-4.2-1.9 -1.3-0.8-2.4-1.9-3.2-3.2 -0.9-1.4-1.3-3.2-1.3-5.5 0-1 0.2-2.1 0.7-3.3 0.5-1.2 1.2-2.2 2.1-3.2 1-1 2.2-1.8 3.7-2.4 1.5-0.7 3.4-1 5.5-1 1.9 0 3.8 0.3 5.6 0.8 1.8 0.5 3.3 1.6 4.7 3.3l-3.9 3.6c-0.6-0.9-1.5-1.7-2.6-2.3 -1.1-0.6-2.4-0.9-3.8-0.9 -1.3 0-2.5 0.2-3.3 0.5 -0.9 0.4-1.6 0.8-2.1 1.4 -0.5 0.6-0.9 1.1-1.1 1.8 -0.2 0.6-0.3 1.2-0.3 1.8 0 1.5 0.4 2.7 1.3 3.5 0.9 0.8 1.9 1.5 3.2 2 1.3 0.5 2.7 1 4.2 1.4 1.5 0.4 2.9 1 4.2 1.7 1.3 0.7 2.4 1.7 3.2 2.9 0.9 1.2 1.3 2.9 1.3 5 0 1.7-0.3 3.2-1 4.6 -0.7 1.4-1.5 2.5-2.6 3.5 -1.1 0.9-2.4 1.7-3.9 2.2s-3.1 0.8-4.8 0.8c-2.3 0-4.4-0.4-6.5-1.2 -2-0.8-3.7-2-4.9-3.7L255.1 235.8z" class="a"/><path d="M283 235.8c0.9 1.3 2 2.3 3.3 2.9 1.4 0.6 2.8 0.9 4.2 0.9 0.8 0 1.6-0.1 2.5-0.4 0.8-0.2 1.6-0.6 2.3-1.1 0.7-0.5 1.2-1.1 1.7-1.9 0.4-0.7 0.7-1.6 0.7-2.6 0-1.4-0.4-2.4-1.3-3.1s-1.9-1.3-3.2-1.8c-1.3-0.5-2.7-1-4.2-1.4 -1.5-0.5-2.9-1.1-4.2-1.9 -1.3-0.8-2.4-1.9-3.2-3.2 -0.9-1.4-1.3-3.2-1.3-5.5 0-1 0.2-2.1 0.7-3.3 0.5-1.2 1.2-2.2 2.1-3.2 1-1 2.2-1.8 3.7-2.4 1.5-0.7 3.4-1 5.5-1 1.9 0 3.8 0.3 5.6 0.8 1.8 0.5 3.3 1.6 4.7 3.3l-3.9 3.6c-0.6-0.9-1.5-1.7-2.6-2.3 -1.1-0.6-2.4-0.9-3.8-0.9 -1.3 0-2.5 0.2-3.3 0.5 -0.9 0.4-1.6 0.8-2.1 1.4 -0.5 0.6-0.9 1.1-1.1 1.8 -0.2 0.6-0.3 1.2-0.3 1.8 0 1.5 0.4 2.7 1.3 3.5 0.9 0.8 1.9 1.5 3.2 2 1.3 0.5 2.7 1 4.2 1.4 1.5 0.4 2.9 1 4.2 1.7 1.3 0.7 2.4 1.7 3.2 2.9 0.9 1.2 1.3 2.9 1.3 5 0 1.7-0.3 3.2-1 4.6 -0.7 1.4-1.5 2.5-2.6 3.5 -1.1 0.9-2.4 1.7-3.9 2.2s-3.1 0.8-4.8 0.8c-2.3 0-4.4-0.4-6.5-1.2 -2-0.8-3.7-2-4.9-3.7L283 235.8z" class="a"/><path d="M321 207.6h4.4l15.2 35.5h-5.6l-3.6-8.8h-16.9l-3.5 8.8h-5.6L321 207.6zM329.6 230.2l-6.6-16.3h-0.1l-6.7 16.3H329.6z" class="a"/></svg>
