<svg xmlns="http://www.w3.org/2000/svg" viewBox="0 0 200 200" width="200" height="200"><g><path d="M121.2 147.5C121.2 155.8 114.4 162.6 106 162.6 97.6 162.6 90.8 155.8 90.8 147.5 90.8 139.1 97.6 132.3 106 132.3 114.4 132.3 121.2 139.1 121.2 147.5Z"/><path d="M61.7 113C46.9 127.9 40.9 159.3 63.2 187.5 53.9 181 47.1 175.3 45.3 172.6Q40.4 175.8 28.9 181.6 36.3 169.3 40.8 163.7C39.2 158.2 38 150.9 37.8 145.8Q30.6 144.3 8 138.3 34.7 134.3 37.8 133.9C38.9 130.6 43.3 119.9 45.3 117.5Q41.2 111.3 30.4 95.1 48.2 106.9 54.2 111.5C56.4 111.5 60.1 112.2 61.7 113Z"/><path d="M127.3 120.4Q129.3 114.9 133.2 113C128.1 111.7 112 105.1 110.9 101.1 109.3 95.3 104 13.4 103.4 8.6 102.9 3.9 97.8 3.7 97.5 8.6 97.1 13.5 90.8 96.5 90 101.1 89.2 105.6 61.7 114.9 61.7 145.8 61.7 179.9 90.3 195 104.9 195 119.5 195 111 184.6 104.9 184.6 97.8 184.6 75.1 172.8 75.1 145.8 75.1 127.9 91.4 113 100.4 113Q120.2 113 127.3 120.4Z"/></g></svg>
