<svg xmlns="http://www.w3.org/2000/svg" viewBox="0 0 200 200" width="200" height="200"><g><path d="M83.5 84.7C85.6 75.4 90.8 58.2 94.8 49.2 97.7 42.7 101.4 42.9 104.5 49.2 108.5 57.8 113.4 68.3 117.4 89.6 160.7 74.2 166.2 102 173.9 99.3 181.7 96.5 170.5 53.1 167.5 47.6 164.1 41.6 172.3 38.4 175.6 42.7 187.2 58.6 199.8 80.5 194.9 115.4 187.5 169.4 130 214.6 62.5 186.5 59.6 185.2 60.7 179.2 67.3 181.6 99.3 191 170.4 174.4 164.2 126.7 163.1 91.4 121.1 96.8 120.6 109 122.4 120.1 123.1 126.4 125.5 139.6 126.3 144.3 122.6 147.7 117.4 147.7 112.2 147.7 87.9 147.7 83.5 147.7 79.1 147.7 74.6 144.3 75.4 139.6 77.2 128.3 78.6 123.2 80.3 115.4 77.5 95.7 48 117.2 31.8 89.6 12.6 89.3 23.7 129.5 39.9 149.3 43.6 153.9 37 160.3 31.8 155.8 22.3 147.4 17.6 144.5 7.6 115.4 -6 76 18.7 11.7 86.7 5.6 119.2 2.4 133.6 11.6 140 15.3 154.9 23.2 138.9 21.3 135.2 20.1 112.2 13.3 91.7 17.5 81.9 20.1 58.6 42.7 36.7 41 36.7 58.9 36.7 93.3 78 93 83.5 84.7ZM99.6 78.3C95.4 78.3 93 122.7 94.8 125.1 96.6 127.5 105.8 127.2 107.7 125.1 109.8 123.2 103.8 78.3 99.6 78.3Z"/></g></svg>
