<svg xmlns="http://www.w3.org/2000/svg" viewBox="0 0 200 200" width="200" height="200"><path d="M49.8 152.5C60.5 152.5 70.8 148.8 79.1 142.1 88.9 133.9 94.9 121.9 95.7 109.5 96.5 100.2 94.1 91 88.6 82.3 84.4 76.1 79.4 71.5 73.6 68.2 75.2 67.9 76.8 67.7 78.7 67.4L81 67.1C84.6 66.3 88.6 66.1 93.3 65.8L96.8 65.6C109.6 65.3 119.3 66.6 127.1 68.1 121.1 71.3 115.9 76.1 111.7 82.5 106.2 91.2 103.8 100.2 104.6 109.6 105.3 122.1 111.4 134 121.3 142.4 129.5 149.1 139.9 152.8 150.5 152.8 152.8 152.8 155.1 152.6 157.2 152.3 170.7 150.4 179.5 142.8 183.2 138.6 185.8 136.3 187.4 133.4 188.9 131 189.3 130.2 189.8 129.3 190.5 128.4 191.9 125 193.2 121.7 194 118.4 194.2 117.5 194.4 116.7 194.4 115.9 194.7 113.7 195 111.7 195 109.6L195 108.2C194.8 106.1 194.8 104.1 194.5 102.2 193.4 97.5 192.4 94.3 190.8 91.8 189.7 89.4 188.2 87.5 186.6 86 183.7 83.3 181.4 82.8 179.8 83.9 177.4 85.5 178.2 89.2 178.3 90.7 178.7 91.8 179 93.5 179.3 96 179.6 97.5 179.8 99.4 180 101.5L180.1 103.5 179.6 108.7C179.5 109.6 179.2 110.6 179 111.7 178.7 112.7 178.5 113.5 178.3 114.3 177.9 115.6 177.2 117.1 176.4 118.5 176.1 119.2 175.8 119.6 175.6 120.3 175.1 120.9 174.6 121.6 174 122.4 173 123.9 172 125.1 170.6 126.3 168 128.9 162.5 133.2 154.4 134.2 147 135.2 138.9 132.9 132.9 128.2 127.1 123.2 123.4 116.1 122.7 108.7 122.1 103.3 123.4 97.8 126.4 92 131.8 82.9 139.1 79.7 142.9 77.9 145.4 77 147.3 76.3 148.9 75.8 150.5 75.3 151.7 75 152.6 74.4 153.4 73.9 154.1 73.4 154.4 72.9 155.9 72.4 156.8 71.6 157.3 70.5 159.4 66.3 154.3 62.4 148.4 58.7 140.7 54.6 126.1 47.2 99.9 47.2 98.6 47.2 97.5 47.2 96 47.2L95.1 47.2C88.3 47.5 82.6 47.9 77.4 49.1 71.9 50.3 67.3 51.1 63.5 52.7 59.7 54 56.6 55.3 53.8 56.4 51.4 57.7 49.3 59 47.7 60.1 41.9 64 40.4 66.8 42.2 70.3 42.8 71.6 43.8 73.1 46.1 73.6 46.4 73.7 46.7 74 47 74.2 48 74.9 49.3 75.2 50.9 75.7 52.5 76.1 54.5 76.6 56.7 77.8 60.6 79.5 67.9 82.8 73.2 91.8 76.3 97.7 77.6 103.2 77 108.5 76.3 115.9 72.6 123 66.9 128.1 60.9 132.7 52.9 135 45.4 134 37.3 133.2 31.8 128.7 29.1 126 27.8 125 26.8 123.7 25.9 122.2 25.4 121.6 24.9 120.8 24.4 120.1 24.1 119.5 23.8 119 23.6 118.4 22.8 116.9 22.1 115.4 21.8 114.3 21.7 113.3 21.3 112.4 21.2 111.6 20.8 110.4 20.5 109.5 20.5 108.7L20 103.6 20.2 101.4C20.4 99.3 20.4 97.3 20.8 95.6 21.2 93.3 21.5 91.7 21.8 90.4 22 89.1 22.8 85.4 20.4 83.7 18.6 82.5 16.3 83.1 13.6 85.7 12 87.1 10.5 89.1 9.4 91.3 7.7 93.9 6.8 97.3 5.6 102 5.3 103.8 5.3 105.7 5.2 107.8L5 109.5C5 111.6 5.3 113.5 5.6 115.8 5.8 116.6 6 117.4 6.1 118.4 6.8 121.6 8.2 124.8 9.9 128.5 10.3 129.3 10.8 130 11.3 130.8 12.8 133.2 14.5 136 17 138.2 21 142.6 29.6 150.2 43.2 152.1 45.3 152.3 47.5 152.5 49.8 152.5Z"/></svg>