<svg xmlns="http://www.w3.org/2000/svg" viewBox="0 0 200 200" width="200" height="200"><path d="M173.3 50.5C171.9 52.4 171.2 55.2 170.1 59.7 169.8 61.1 169.4 62.7 169 64.5L166.2 77.4C165.7 80.2 164.8 82.9 163.9 85.5L163.2 87.5C162.8 88.4 162.7 89.3 162.3 90.1 148.7 84.3 125.5 73.7 110.1 63.6 88.6 49.6 44.9 12 39.9 7.6 36.4 4.6 30.9 4.1 26.8 6.7 22.7 9.4 21 14.5 22.6 19.1 22.7 19.6 42.2 79.9 48.1 106.6 52 124.5 55 152 56.6 168.3 49.5 168.4 43.5 168.3 38.3 167.9L35.1 167.7C31.2 167.2 27.5 166.8 24 166.7 21 166.3 18.5 166.1 16.4 166.3 12.1 166.5 9.5 167.9 8.2 170.6 6.4 174.6 10.2 178.2 11.4 179.4 13 181 15.3 182.6 18.3 184.6 21.3 186.1 25.2 187.7 30.4 189.7 38.5 192.2 49.8 195 64.7 195 68.1 195 71.5 194.8 74.8 194.6 100.9 192.3 124.6 182.6 145.7 165.6 165.7 148.8 179.7 128.2 187.1 104.5 188.5 100.8 189.2 97.2 189.8 94L190.1 92.1C191 88.5 191.5 85 191.7 81.5L191.9 80C192.1 77.4 192.3 74.9 192.3 72.6L191.7 65.7C191.4 59.1 189.8 54 187.1 49.9 185.3 47.6 182.9 46.7 180.2 46.9 177.6 47.1 175.1 47.6 173.3 50.5ZM153.3 110C146.4 122.4 137.5 133 126.2 142.6 111.8 154.1 96.1 161.7 77.8 165.6 76.2 149.1 73.2 121.1 69.1 102.2 66.1 88.2 59.8 66.2 54.3 48.2 68.6 60 86.2 74 98.2 81.8 114.8 92.8 138.9 103.8 153.3 110Z"/></svg>
