<svg xmlns="http://www.w3.org/2000/svg" viewBox="0 0 200 200" width="200" height="200"><g><path d="M21.8 153.6C23.7 156.6 25.9 158.9 27.4 160.4L28 161.1C29.6 162.8 31.2 164.3 32.7 165.7 36 168.2 38.8 170.6 41.6 172.4 46.9 175.4 50.1 176.6 52.5 176.6 54.5 176.6 55.6 175.7 56.2 174.8 57.6 174.1 58.7 172.7 59.5 170.6 59.8 169.8 59.9 168.8 60.3 167.9 60.4 167.4 60.4 166.8 60.6 166.4 61.2 164.5 61.8 162.2 62.4 159.8 62.7 158.4 63.4 157 64.1 155.3 64.6 154.1 65.2 152.8 65.5 151.9 66 151.3 66.5 150.5 66.9 149.7 68.5 147.2 70.1 144.6 72.7 142.2 76.9 137.9 85.9 130.6 99.1 130.6 100.5 130.6 101.9 130.6 103.5 130.9 114.5 131.8 123.7 137.4 130.7 147.2L133.7 152 135.5 157C136.3 158.6 136.6 160 136.9 161.4 137.1 162.3 137.4 163.2 137.6 164L138.3 166.5C138.5 167.4 138.7 168.2 138.8 168.8 139.1 170.2 139.6 171.5 140.1 172.3 141 174 142.4 174.6 143.5 174.9 144.4 175.8 146.1 176.5 149.4 175.5 151.7 174.8 156.6 173.4 162.3 168.5L163.6 167.6C164.6 166.8 165.9 165.9 167.1 164.8L172 159.8C174.1 157.6 175.8 155.6 177.4 153.3 177.9 152.5 178.5 151.7 179.1 151 180.4 149.2 181.8 147.4 182.8 145.4 189.1 134.9 196.2 117.7 194.8 94.2 193.7 76.1 188 59.9 177.7 46.4 175.8 43.6 173.8 41.3 172.1 39.6L171.2 38.6C169.6 37.1 168.4 35.7 166.8 34.3 163.6 31.6 160.6 29.4 158 27.6 152.7 24.6 149.4 23.4 147.1 23.4 145 23.4 144 24.5 143.3 25.2 141.9 25.9 140.8 27.3 140.1 29.4 139.6 30.5 139.3 32.1 139.1 33.6 138.5 35.5 137.9 37.8 137.3 40.3 137.1 41.6 136.5 43 135.7 44.5 135.1 45.8 134.6 47 134.1 48.6 133.7 49.4 133.2 50.1 132.7 50.9 131.2 53.3 129.6 55.7 127.3 58.1 123.1 62.4 114.1 69.9 100.7 69.9 99.3 69.9 97.9 69.9 96.2 69.6 93.7 69.6 91.5 68.8 89.2 68.2 88.3 67.9 87.3 67.6 86.9 67.6L86.1 67.3C83.4 66 81.1 64.9 79.1 63.4 75 60.4 71.6 57 69.1 53.3 68.7 52.3 68 51.4 67.6 50.6 67.1 49.7 66.5 48.9 66.2 48.3L64.3 43.3C63.7 42.2 63.4 41 63.2 39.6L62.3 36C61.8 34.4 61.5 33.2 61.3 32.1L61.2 31.2C60.9 29.8 60.4 28.7 59.9 27.7 59 26 57.6 25.4 56.5 25.1 55.6 24.2 53.9 23.5 50.6 24.5 48.1 25.2 43.4 26.8 37.7 31.5L36.6 32.2C35.5 33.2 34.3 34 32.9 35.2L28 40.2C25.9 42.4 24.2 44.4 22.6 46.7 22.1 47.5 21.5 48.3 20.9 49 19.6 50.8 18.2 52.6 17.2 54.7 10.9 65.1 3.8 82.3 5.2 105.8 6 123.9 11.7 139.9 21.8 153.6ZM48.3 48L50 54.8C50.8 56.7 51.7 58.5 52.6 60.6L53.6 62.4C57 68.5 61.8 73.9 67.7 78.5 71.1 81.1 75.3 83.1 79.5 85.1L81.9 85.9C85.6 87.2 89.7 88.6 94 88.6 98.1 89.2 102.7 88.9 106.9 88.4L109.1 88.1C110.8 87.9 112.5 87.5 113.9 86.9 114.5 86.7 115.3 86.4 116.1 86.2 116.7 85.9 117.3 85.8 118.1 85.6 119.5 85.1 121.1 84.7 122.3 83.9 129.8 80.2 135.9 75.3 140.1 70.1 144.1 65.5 146.1 60.9 148.2 56.8L148.9 55C149.2 53.7 149.6 52.5 149.9 51.2 150.6 48.1 151.4 45.3 151.3 42.7 151.3 42.5 151.3 42.2 151.3 42 152.4 43.3 153.6 44.5 154.8 45.8L158.6 50.8C160 52.5 161.4 54.2 162.6 56.5 170.4 68.5 174.6 81.3 175.5 95.4 176.5 110.2 173.5 124.2 166.8 136.9 166.2 138.5 165.3 139.9 164.5 141.1 163.9 142.1 163.4 142.9 162.9 143.8 162 145.7 160.8 147.4 159.2 149.4L156.7 152.8 152.4 158C152.2 158.1 152 158.3 151.9 158.4 151.9 156.6 151.7 154.4 151 152.2L149.1 145.2C148 142.9 146.9 140.5 145.5 137.7 142.1 131.7 137.3 126.4 131.3 121.9 128.4 119.7 124.7 117.5 119.7 115.3L117.5 114.5C113.8 113.3 109.7 111.9 105.4 111.9 103.8 111.6 102.1 111.4 100.2 111.4 97.4 111.4 94.9 111.7 92.5 112.1L90.3 112.4C88.6 112.5 87 113 85.5 113.6 84.8 113.8 84.1 114.1 83.3 114.2 82.7 114.5 82 114.7 81.3 114.9 79.9 115.3 78.3 115.8 77.1 116.6 69.7 120.3 63.5 125 59.3 130.3 55.1 134.9 52.8 140.1 50.9 144.1L49.8 147.2C48.7 151 48 154.4 47.8 157.3 47.8 157.5 47.8 157.8 47.8 158 46.7 156.7 45.5 155.3 44.1 154.1L40.3 149.1C39.1 147.5 37.5 145.7 36.3 143.3 28.5 131.3 24.3 118.6 23.5 104.4 22.6 89.7 25.6 75.7 32.2 62.9 32.9 61.3 33.8 60.1 34.6 58.7 35.2 57.8 35.7 57 36.1 56.1 37.1 54.2 38.3 52.5 39.9 50.5L43.3 45.8 46.7 41.9C46.9 41.7 47 41.6 47 41.4L47 41.6C47.3 43.9 47.6 45.9 48.3 48Z"/></g></svg>
