<svg xmlns="http://www.w3.org/2000/svg" viewBox="0 0 200 200" width="200" height="200"><path d="M141.4 41.1C141.1 40.3 140.8 39.4 140.6 38.6 140 36.8 139.6 35 138.8 33.3L135.1 26.4 130.8 20.8C129.7 19.4 128.5 18.3 127.4 17.4 126.9 17 126.3 16.4 125.8 16 124.3 14.5 122.5 13.3 120.5 12.2L118.9 11.3C117.8 10.6 116.7 9.9 115.5 9.4 114.4 9 113.3 8.6 112.4 8.2 110.5 7.5 108.7 6.7 106.8 6.3L99.2 5.1C98.6 4.9 98.1 5.1 97.7 5.5 97.3 5.9 97 6.3 97 6.8L96.9 8.4C96.9 9.3 97.2 9.9 97.8 10.3 97.8 10.3 100.5 12 104.5 14.1 105.4 14.7 106.4 15.5 107.5 16.4 108.6 17.3 109.6 18.2 110.6 18.9 111.3 19.6 111.9 20.2 112.6 21.1L113.7 22.3C114.3 22.8 114.8 23.4 115.3 24 115.6 24.5 115.9 24.9 116.2 25.3L116.8 26.2C118.2 27.8 119.3 30 120.4 32.2 120.9 33.1 121.3 34.2 121.7 34.8L123.2 39.8C123.3 40.3 123.3 40.9 123.3 41.3 123.5 42.4 123.6 43.4 124 44.7 124.2 44.9 124.2 46 124.2 47.2L124.2 51.5C124.2 51.5 124.2 51.6 124.2 51.6 124.2 51.7 124 52 124 52L123.9 52.7C123.7 53.5 123.6 54.2 123.5 55L123.3 55.9C123.3 57 122.9 58.1 122.5 59.3 122.4 59.7 122.1 60.3 122 61 121.7 62.4 120.8 63.8 119.7 65.4 119.4 65.8 119.3 66.2 119 66.8 118.9 67.2 118.7 67.6 118.6 67.7L115.5 71.9 113.3 73.8C112.2 74.9 110.9 76.1 109.4 77.1 109.4 77.1 109 77.4 108.8 77.5 107.6 78.5 106.2 79.4 105.2 79.8 104.5 80.2 103.8 80.5 103.1 80.9 103 80.9 102.6 81.3 102.4 81.3L93.9 83.3C93.8 83.3 93.6 83.3 93.6 83.5L93.2 83.5C90.4 83.7 87.7 84.2 84.7 83.9 77.5 83.3 71.4 81 68.3 79.5 66.8 78.9 65.3 78 63.4 77L61.6 75.9C60.9 75.5 60 75.6 59.3 76L58.1 77C57.7 77.2 57.4 77.8 57.4 78.3 57.4 78.9 57.5 79.4 57.8 79.8L59.6 81.8C60.4 82.8 61.5 84.2 63 85.6 66.5 89.2 72.5 93.8 80.9 96.6 84.1 97.9 88.1 98.5 93.1 98.9L93.1 187.1C93.1 191.5 96.6 195 101 195 105.3 195 108.8 191.5 108.8 187.1L108.8 97C109.4 96.9 109.8 96.8 110.3 96.6 113.2 96 115.6 94.6 118.3 93.2L119.5 92.6C120.4 92.2 121.2 91.7 122.1 91.1L128.9 85.5 134.5 78.9C135 78 135.6 77.1 136.1 76.1L136.8 74.9C138.1 72.3 139.6 69.6 140.3 66.8L140.7 65.4C141.4 63.1 142.2 60.7 142.2 58.4 142.9 53.1 142.7 47.5 141.4 41.1Z"/><circle vector-effect="non-scaling-stroke" cx="93.9" cy="53.9" r="15.6"/></svg>
